<svg class="icon line" width="32" height="32" id="user-circle-2" xmlns="http://www.w3.org/2000/svg" viewBox="0 0 24 24"><title style="stroke-width: 2; stroke: rgb(85, 85, 85);">user circle-2</title><path id="primary" d="M12,21h0a9,9,0,0,1-9-9H3a9,9,0,0,1,9-9h0a9,9,0,0,1,9,9h0A9,9,0,0,1,12,21ZM12,7a4,4,0,1,0,4,4A4,4,0,0,0,12,7Zm2.17,7.35a3.95,3.95,0,0,1-4.34,0,7,7,0,0,0-4.28,3.92,9,9,0,0,0,12.81.09l.09-.09A7,7,0,0,0,14.17,14.35Z" style="fill: none; stroke: rgb(85, 85, 85); stroke-linecap: round; stroke-linejoin: round; stroke-width: 2;"></path></svg>